HIERARCHY
ROOT Hips
{
	OFFSET 4.076200 -17.275196 43.303001
	CHANNELS 6 Xposition Yposition Zposition Zrotation Xrotation Yrotation
	JOINT Chest
	{
		OFFSET -0.689800 0.941999 5.341000
		CHANNELS 6 Xposition Yposition Zposition Zrotation Xrotation Yrotation
		JOINT Chest2
		{
			OFFSET 0.000000 0.000000 4.278900
			CHANNELS 6 Xposition Yposition Zposition Zrotation Xrotation Yrotation
			JOINT Neck
			{
				OFFSET 0.000000 0.000000 9.970299
				CHANNELS 6 Xposition Yposition Zposition Zrotation Xrotation Yrotation
				JOINT Head
				{
					OFFSET 0.000000 0.000002 2.173901
					CHANNELS 6 Xposition Yposition Zposition Zrotation Xrotation Yrotation
					End Site
					{
						OFFSET 0.000000 0.000000 6.488197
					}
				}
			}
			JOINT LeftCollar
			{
				OFFSET 2.472300 -0.285801 5.433899
				CHANNELS 6 Xposition Yposition Zposition Zrotation Xrotation Yrotation
				JOINT LeftShoulder
				{
					OFFSET 5.327700 0.000000 0.000000
					CHANNELS 6 Xposition Yposition Zposition Zrotation Xrotation Yrotation
					JOINT LeftElbow
					{
						OFFSET 0.000000 0.000000 -10.713001
						CHANNELS 6 Xposition Yposition Zposition Zrotation Xrotation Yrotation
						JOINT LeftWrist
						{
							OFFSET 0.000000 -0.000002 -13.396900
							CHANNELS 6 Xposition Yposition Zposition Zrotation Xrotation Yrotation
							End Site
							{
								OFFSET 0.000000 0.000000 -2.173901
							}
						}
					}
				}
			}
			JOINT RightCollar
			{
				OFFSET -2.589400 -1.358400 6.105000
				CHANNELS 6 Xposition Yposition Zposition Zrotation Xrotation Yrotation
				JOINT RightShoulder
				{
					OFFSET -4.580200 0.000000 0.000000
					CHANNELS 6 Xposition Yposition Zposition Zrotation Xrotation Yrotation
					JOINT RightElbow
					{
						OFFSET 0.000000 0.000000 -10.761101
						CHANNELS 6 Xposition Yposition Zposition Zrotation Xrotation Yrotation
						JOINT RightWrist
						{
							OFFSET 0.000000 -0.000002 -13.028500
							CHANNELS 6 Xposition Yposition Zposition Zrotation Xrotation Yrotation
							End Site
							{
								OFFSET 0.000000 0.000000 -2.173901
							}
						}
					}
				}
			}
		}
	}
	JOINT LeftHip
	{
		OFFSET 2.532500 0.486900 -2.489700
		CHANNELS 6 Xposition Yposition Zposition Zrotation Xrotation Yrotation
		JOINT LeftKnee
		{
			OFFSET 0.000000 -0.000002 -18.199398
			CHANNELS 6 Xposition Yposition Zposition Zrotation Xrotation Yrotation
			JOINT LeftAnkle
			{
				OFFSET 0.000000 -0.000002 -16.083900
				CHANNELS 6 Xposition Yposition Zposition Zrotation Xrotation Yrotation
				End Site
				{
					OFFSET 0.000000 -8.641399 0.000000
				}
			}
		}
	}
	JOINT RightHip
	{
		OFFSET -2.112700 -0.049900 -2.711102
		CHANNELS 6 Xposition Yposition Zposition Zrotation Xrotation Yrotation
		JOINT RightKnee
		{
			OFFSET 0.000000 -0.000002 -19.127298
			CHANNELS 6 Xposition Yposition Zposition Zrotation Xrotation Yrotation
			JOINT RightAnkle
			{
				OFFSET 0.000000 -0.000002 -14.874901
				CHANNELS 6 Xposition Yposition Zposition Zrotation Xrotation Yrotation
				End Site
				{
					OFFSET 0.000000 -8.198299 0.000000
				}
			}
		}
	}
}
MOTION
Frames: 5
Frame Time: 0.041667
66.135689 -64.379395 37.895504 -97.264988 3.266377 -5.722534 -0.689796 0.942001 5.340989 2.258248 -0.289367 5.200660 -0.000006 0.000006 4.278909 -0.400516 -1.181548 -0.184226 -0.000001 0.000010 9.970304 1.485960 5.755213 3.304589 0.000001 0.000007 2.173902 0.323817 0.010698 -1.576185 2.472290 -0.285793 5.433899 -8.025393 1.336696 -3.493658 5.327709 -0.000007 0.000000 -29.088440 -40.873327 -47.502443 0.000016 0.000011 -10.713008 33.093209 -41.756379 75.887759 -0.000006 -0.000008 -13.396892 -71.213396 1.074149 -94.154369 -2.589404 -1.358392 6.105004 19.599166 7.722097 7.100490 -4.580194 0.000007 0.000009 38.750648 -33.140303 54.713097 0.000002 -0.000002 -10.761097 -59.058808 -52.653256 -84.916873 0.000002 0.000005 -13.028503 -103.659322 1.579327 -143.707713 2.532505 0.486889 -2.489709 31.454988 -31.593624 21.460270 -0.000005 -0.000001 -18.199406 -80.779493 58.897445 67.667128 -0.000004 -0.000003 -16.083897 33.596311 9.736335 -4.461256 -2.112695 -0.049912 -2.711110 -37.588437 -32.700873 -11.951934 0.000001 0.000010 -19.127295 182.244460 78.533686 -151.730494 -0.000004 0.000000 -14.874896 17.410808 65.140402 -19.151188
66.034500 -64.359390 37.857899 -96.803868 3.114675 -5.776402 -0.689804 0.942010 5.340993 1.853453 -0.229804 5.363513 -0.000003 -0.000002 4.278904 -0.294456 -1.227258 -0.187767 0.000005 -0.000019 9.970294 1.280119 5.813076 3.239526 -0.000004 -0.000002 2.173892 0.435574 0.013857 -1.637752 2.472301 -0.285819 5.433903 -8.153407 1.486806 -3.437399 5.327701 -0.000002 0.000005 -28.896604 -41.371767 -47.573897 0.000004 0.000005 -10.713003 32.623145 -41.854057 75.878300 -0.000003 -0.000006 -13.396900 -71.199224 0.906475 -94.011926 -2.589397 -1.358416 6.105004 19.519159 7.835719 6.893997 -4.580212 0.000007 -0.000002 38.776890 -33.247213 55.043204 -0.000002 -0.000004 -10.761098 -59.167245 -52.247515 -85.119429 -0.000004 0.000005 -13.028494 -103.321358 1.590694 -143.951004 2.532499 0.486910 -2.489702 31.278428 -31.329668 21.305812 -0.000001 -0.000001 -18.199398 -80.969762 58.869216 67.860866 -0.000012 -0.000006 -16.083897 33.417257 9.725409 -4.898962 -2.112707 -0.049898 -2.711107 -38.574368 -33.196560 -13.508690 -0.000000 0.000009 -19.127300 182.849287 77.893909 -150.456841 -0.000011 -0.000001 -14.874892 19.947274 66.079048 -20.500934
65.929398 -64.338699 37.845001 -96.367173 3.026771 -5.807553 -0.689794 0.942014 5.340999 1.630680 -0.276150 5.559457 -0.000004 0.000000 4.278901 -0.283101 -1.250479 -0.190936 0.000007 0.000005 9.970301 1.224771 5.990133 2.973248 -0.000002 -0.000004 2.173895 0.365948 0.044687 -1.555016 2.472307 -0.285793 5.433903 -8.296813 1.606175 -3.624968 5.327702 0.000002 0.000002 -28.519776 -41.852360 -47.276500 0.000010 0.000002 -10.712993 32.241747 -41.667777 75.889829 0.000000 -0.000004 -13.396895 -71.289970 1.225471 -94.297359 -2.589396 -1.358397 6.105003 19.377117 7.649582 6.629421 -4.580200 -0.000007 -0.000001 38.744023 -33.004061 55.042500 0.000005 0.000002 -10.761104 -59.340287 -52.366125 -85.277644 -0.000003 -0.000003 -13.028501 -103.472168 1.623709 -144.130707 2.532501 0.486906 -2.489706 31.079550 -31.063154 21.123688 -0.000010 0.000004 -18.199402 -80.671337 58.895444 67.637840 0.000002 -0.000003 -16.083904 33.169577 9.764753 -5.303562 -2.112693 -0.049889 -2.711104 -39.483637 -33.694621 -14.986953 0.000004 0.000005 -19.127291 181.912239 76.981471 -147.631657 -0.000006 0.000003 -14.874901 22.005799 66.243532 -22.121950
65.825294 -64.323189 37.859406 -95.918170 2.925285 -5.756025 -0.689814 0.942001 5.340994 1.336334 -0.262347 5.568507 0.000005 0.000003 4.278900 0.004487 -1.259607 -0.068785 0.000004 -0.000011 9.970301 0.813191 6.036592 2.815734 -0.000004 -0.000011 2.173893 0.346140 0.115321 -1.593622 2.472302 -0.285823 5.433900 -8.666743 1.681946 -3.725944 5.327706 -0.000004 0.000003 -28.763549 -41.758069 -47.442818 -0.000003 -0.000004 -10.713001 32.584442 -41.434332 75.915872 0.000004 -0.000011 -13.396903 -71.501548 1.492896 -94.530030 -2.589396 -1.358420 6.104997 18.962765 7.500133 6.503522 -4.580195 -0.000011 -0.000002 38.580904 -33.124799 54.923959 0.000000 -0.000003 -10.761101 -59.294190 -52.425295 -85.438071 -0.000000 -0.000003 -13.028500 -103.569655 1.611170 -144.194910 2.532488 0.486898 -2.489708 30.909925 -30.756130 20.904255 -0.000007 -0.000001 -18.199402 -80.541024 58.712791 67.254366 -0.000000 -0.000002 -16.083893 32.950308 9.787668 -5.278681 -2.112711 -0.049906 -2.711106 -40.564985 -34.097670 -16.522820 -0.000003 0.000003 -19.127300 183.397273 76.739320 -147.218908 -0.000002 -0.000004 -14.874900 24.122835 66.653002 -23.231321
65.710899 -64.314392 37.913803 -95.406876 2.793874 -5.695719 -0.689807 0.941999 5.340990 1.000676 -0.266362 5.588495 -0.000005 -0.000008 4.278906 -0.013671 -1.269779 -0.098079 -0.000000 0.000003 9.970303 0.715798 6.156707 2.748270 -0.000001 -0.000002 2.173891 0.377455 0.118942 -1.594914 2.472296 -0.285796 5.433905 -8.812748 1.854658 -3.672633 5.327698 -0.000012 0.000012 -28.877265 -41.816604 -47.635932 -0.000002 -0.000012 -10.713004 32.676311 -41.387282 75.910552 -0.000003 -0.000007 -13.396892 -71.591447 1.492808 -94.451332 -2.589399 -1.358397 6.105001 18.925274 7.502212 6.345724 -4.580201 0.000000 0.000001 38.213406 -33.524372 54.840101 0.000001 -0.000001 -10.761107 -58.761804 -52.316794 -85.414856 0.000003 0.000004 -13.028504 -103.502610 1.602808 -144.304289 2.532491 0.486895 -2.489705 30.632521 -30.342497 20.655197 -0.000008 -0.000005 -18.199394 -80.188634 58.643765 66.574701 -0.000002 0.000003 -16.083899 32.634856 9.874872 -5.303145 -2.112708 -0.049900 -2.711107 -41.484110 -34.462908 -17.868402 -0.000003 0.000009 -19.127293 183.876506 76.391055 -145.927347 -0.000002 0.000000 -14.874902 24.925319 67.166318 -23.209714
